%TF.GenerationSoftware,KiCad,Pcbnew,9.0.7*%
%TF.CreationDate,2026-05-12T11:58:12+02:00*%
%TF.ProjectId,419Achopp,34313941-6368-46f7-9070-2e6b69636164,rev?*%
%TF.SameCoordinates,Original*%
%TF.FileFunction,Legend,Bot*%
%TF.FilePolarity,Positive*%
%FSLAX46Y46*%
G04 Gerber Fmt 4.6, Leading zero omitted, Abs format (unit mm)*
G04 Created by KiCad (PCBNEW 9.0.7) date 2026-05-12 11:58:12*
%MOMM*%
%LPD*%
G01*
G04 APERTURE LIST*
%ADD10C,0.100000*%
%ADD11C,0.120000*%
G04 APERTURE END LIST*
D10*
X142033884Y-93748533D02*
X142795789Y-93748533D01*
X144033884Y-93748533D02*
X144795789Y-93748533D01*
X144414836Y-93367580D02*
X144414836Y-94129485D01*
X142153884Y-116598533D02*
X142915789Y-116598533D01*
X144153884Y-116598533D02*
X144915789Y-116598533D01*
X144534836Y-116217580D02*
X144534836Y-116979485D01*
X144676115Y-110551466D02*
X143914211Y-110551466D01*
X142676115Y-110551466D02*
X141914211Y-110551466D01*
X142295163Y-110932419D02*
X142295163Y-110170514D01*
D11*
%TO.C,R7*%
X138285000Y-97678748D02*
X138285000Y-98201252D01*
X139755000Y-97678748D02*
X139755000Y-98201252D01*
%TO.C,R5*%
X147182064Y-122188000D02*
X145727936Y-122188000D01*
X147182064Y-124008000D02*
X145727936Y-124008000D01*
%TO.C,R1*%
X148967064Y-88890000D02*
X147512936Y-88890000D01*
X148967064Y-90710000D02*
X147512936Y-90710000D01*
%TO.C,R12*%
X146091252Y-95955000D02*
X145568748Y-95955000D01*
X146091252Y-97425000D02*
X145568748Y-97425000D01*
%TO.C,R10*%
X142061252Y-95875000D02*
X141538748Y-95875000D01*
X142061252Y-97345000D02*
X141538748Y-97345000D01*
%TO.C,R2*%
X147027064Y-86370000D02*
X145572936Y-86370000D01*
X147027064Y-88190000D02*
X145572936Y-88190000D01*
%TO.C,R8*%
X146111252Y-97975000D02*
X145588748Y-97975000D01*
X146111252Y-99445000D02*
X145588748Y-99445000D01*
%TO.C,R4*%
X141057936Y-124008000D02*
X142512064Y-124008000D01*
X141057936Y-122188000D02*
X142512064Y-122188000D01*
%TO.C,R13*%
X136185000Y-104821252D02*
X136185000Y-104298748D01*
X137655000Y-104821252D02*
X137655000Y-104298748D01*
%TO.C,R11*%
X141508748Y-97905000D02*
X142031252Y-97905000D01*
X141508748Y-99375000D02*
X142031252Y-99375000D01*
%TO.C,U1*%
X138372500Y-101440000D02*
X138372500Y-105560000D01*
X138372500Y-105560000D02*
X138427500Y-105560000D01*
X138427500Y-101440000D02*
X138372500Y-101440000D01*
X148437500Y-105560000D02*
X148492500Y-105560000D01*
X148492500Y-101440000D02*
X148437500Y-101440000D01*
X148492500Y-105560000D02*
X148492500Y-101440000D01*
X138422500Y-100900000D02*
X138092500Y-101140000D01*
X138092500Y-100660000D01*
X138422500Y-100900000D01*
G36*
X138422500Y-100900000D02*
G01*
X138092500Y-101140000D01*
X138092500Y-100660000D01*
X138422500Y-100900000D01*
G37*
%TO.C,R9*%
X136185000Y-101351252D02*
X136185000Y-100828748D01*
X137655000Y-101351252D02*
X137655000Y-100828748D01*
%TO.C,R3*%
X144099564Y-88890000D02*
X142645436Y-88890000D01*
X144099564Y-90710000D02*
X142645436Y-90710000D01*
%TO.C,R6*%
X144042064Y-119688000D02*
X142587936Y-119688000D01*
X144042064Y-121508000D02*
X142587936Y-121508000D01*
%TD*%
M02*
