%TF.GenerationSoftware,KiCad,Pcbnew,9.0.7*%
%TF.CreationDate,2026-05-28T15:25:21+02:00*%
%TF.ProjectId,419Achopp,34313941-6368-46f7-9070-2e6b69636164,rev?*%
%TF.SameCoordinates,Original*%
%TF.FileFunction,Legend,Top*%
%TF.FilePolarity,Positive*%
%FSLAX46Y46*%
G04 Gerber Fmt 4.6, Leading zero omitted, Abs format (unit mm)*
G04 Created by KiCad (PCBNEW 9.0.7) date 2026-05-28 15:25:21*
%MOMM*%
%LPD*%
G01*
G04 APERTURE LIST*
%ADD10C,0.120000*%
G04 APERTURE END LIST*
D10*
%TO.C,C3*%
X140555436Y-102610000D02*
X142009564Y-102610000D01*
X140555436Y-104430000D02*
X142009564Y-104430000D01*
%TO.C,C2*%
X146699564Y-102610000D02*
X145245436Y-102610000D01*
X146699564Y-104430000D02*
X145245436Y-104430000D01*
%TO.C,C1*%
X144577064Y-105160000D02*
X143122936Y-105160000D01*
X144577064Y-106980000D02*
X143122936Y-106980000D01*
%TO.C,D1*%
X140755000Y-90743000D02*
X140755000Y-93833000D01*
X140755000Y-90743170D02*
G75*
G02*
X146305000Y-92288000I2560000J-1544830D01*
G01*
X146305000Y-92288000D02*
G75*
G02*
X140755000Y-93832830I-2990000J0D01*
G01*
X145815000Y-92288000D02*
G75*
G02*
X140815000Y-92288000I-2500000J0D01*
G01*
X140815000Y-92288000D02*
G75*
G02*
X145815000Y-92288000I2500000J0D01*
G01*
%TO.C,J1*%
X141210000Y-107688000D02*
X142320000Y-107688000D01*
X141210000Y-108798000D02*
X141210000Y-107688000D01*
X141210000Y-109798000D02*
X141210000Y-109908000D01*
X141210000Y-109798000D02*
X143320000Y-109798000D01*
X141210000Y-109908000D02*
X145430000Y-109908000D01*
X143320000Y-107688000D02*
X145430000Y-107688000D01*
X143320000Y-109798000D02*
X143320000Y-107688000D01*
X145430000Y-107688000D02*
X145430000Y-109908000D01*
%TO.C,D2*%
X140755000Y-116553000D02*
X140755000Y-119643000D01*
X140755000Y-116553170D02*
G75*
G02*
X146305000Y-118098000I2560000J-1544830D01*
G01*
X146305000Y-118098000D02*
G75*
G02*
X140755000Y-119642830I-2990000J0D01*
G01*
X145815000Y-118098000D02*
G75*
G02*
X140815000Y-118098000I-2500000J0D01*
G01*
X140815000Y-118098000D02*
G75*
G02*
X145815000Y-118098000I2500000J0D01*
G01*
%TD*%
M02*
